{"asset":{"generator":"Khronos glTF Spline I/O v0.0.1","version":"2.0"},"scenes":[{"nodes":[0]}],"nodes":[{"name":"","children":[1,2,3]},{"name":"Group","matrix":[1.3,0,0,0,0,1.3,0,0,0,0,1.53660395408534,0,-66.44291352943219,241.07591536225493,-793.2253722664368,1],"children":[4,5]},{"name":"Directional Light","translation":[200,300,300],"rotation":[-0.4062840720729887,0.12301291902225084,-0.2623788760260691,0.8665785595944042],"extensions":{"KHR_lights_punctual":{"light":0}}},{"name":"Personal Camera","camera":0,"translation":[0,6.123233995736766e-14,1000],"rotation":[-3.061616997868383e-17,0,0,1]},{"name":"Cube 4","matrix":[-1.5556327520532938,1.8620004582087073,3.411956190024127,0,0.794528988694414,0.6064182364922156,0.031314670266453036,0,-0.4802739556054486,0.6591372902573172,-0.5786838170878249,0,216.08334348211827,-267.7294214211831,200.03569870283832,1],"mesh":0},{"name":"Cube 2","matrix":[-0.37156508674969435,0.4447414474072415,0.8149505698302769,0,0.8020042410499592,0.5959480376685848,0.040436786925594596,0,-0.46768427774148663,0.6686187114918843,-0.5781180113059727,0,-10.756927612387008,65.49304997700492,-75.16529463056813,1],"mesh":1}],"cameras":[{"type":"orthographic","orthographic":{"xmag":1904,"ymag":993,"zfar":500000,"znear":-500000}}],"meshes":[{"primitives":[{"attributes":{"POSITION":1,"NORMAL":2,"TEXCOORD_0":3},"indices":0}]},{"primitives":[{"attributes":{"POSITION":5,"NORMAL":6,"TEXCOORD_0":7},"indices":4}]}],"buffers":[{"uri":"data:application/octet-stream;base64,","byteLength":840},{"uri":"data:application/octet-stream;base64,","byteLength":23496}],"bufferViews":[{"buffer":0,"byteOffset":0,"byteLength":72,"target":34963},{"buffer":0,"byteOffset":72,"byteLength":288,"target":34962},{"buffer":0,"byteOffset":360,"byteLength":288,"target":34962},{"buffer":0,"byteOffset":648,"byteLength":192,"target":34962},{"buffer":1,"byteOffset":0,"byteLength":4296,"target":34963},{"buffer":1,"byteOffset":4296,"byteLength":7200,"target":34962},{"buffer":1,"byteOffset":11496,"byteLength":7200,"target":34962},{"buffer":1,"byteOffset":18696,"byteLength":4800,"target":34962}],"accessors":[{"bufferView":0,"byteOffset":0,"componentType":5123,"count":36,"type":"SCALAR","min":[0],"max":[23]},{"bufferView":1,"byteOffset":0,"componentType":5126,"count":24,"type":"VEC3","min":[-4,-42.5,-270.5],"max":[4,42.5,270.5]},{"bufferView":2,"byteOffset":0,"componentType":5126,"count":24,"type":"VEC3","min":[-1,-1,-1],"max":[1,1,1]},{"bufferView":3,"byteOffset":0,"componentType":5126,"count":24,"type":"VEC2","min":[0,0],"max":[1,1]},{"bufferView":4,"byteOffset":0,"componentType":5123,"count":2148,"type":"SCALAR","min":[0],"max":[599]},{"bufferView":5,"byteOffset":0,"componentType":5126,"count":600,"type":"VEC3","min":[-88,-209,-374],"max":[88,209,374]},{"bufferView":6,"byteOffset":0,"componentType":5126,"count":600,"type":"VEC3","min":[-1,-1,-1],"max":[1,1,1]},{"bufferView":7,"byteOffset":0,"componentType":5126,"count":600,"type":"VEC2","min":[0,0],"max":[1,1]}],"extensions":{"KHR_lights_punctual":{"lights":[{"type":"directional","name":"Directional Light","color":[1,1,1],"intensity":0.7}]}},"extensionsUsed":["KHR_lights_punctual"]}