{"asset":{"generator":"Khronos glTF Spline I/O v0.0.1","version":"2.0"},"scenes":[{"nodes":[0]}],"nodes":[{"name":"","children":[1,2,3,4,5,6,7,8,9,10]},{"name":"Group 6","matrix":[1,0,0,0,0,0.9542257547375592,-0.29908729326993305,0,0,0.29908729326993305,0.9542257547375592,0,-271.5699999999998,1020.3980732270959,-425.113376811516,1],"children":[11,12]},{"name":"Group 2","matrix":[1,0,0,0,0,1,0,0,0,0,1,0,-363.5000000000023,1022.0000000000006,-447.00000000000034,1]},{"name":"Cube 6","matrix":[-4.44089209850063e-16,-1.0000000000000004,-3.6977854932234967e-32,0,1.000000000000003,-4.440892098500642e-16,5.5511151231258e-17,0,-5.551115123125791e-17,6.162975822039162e-33,1.000000000000002,0,-363.9999999999998,1037.5,-1437.0000000000005,1],"mesh":0},{"name":"Cube 3","matrix":[-2.220446049250315e-16,-6.106226635438362e-16,1.0000000000000007,0,1.0000000000000007,-8.881784197001256e-16,-4.440892098500624e-16,0,-2.627434620609032e-46,1.0000000000000007,-1.1102230246251595e-16,0,-362.9999999999998,16.5,-447.00000000000034,1],"mesh":1},{"name":"Group","matrix":[1,0,0,0,0,0.9428750852573725,-0.3331464746937908,0,0,0.3331464746937908,0.9428750852573725,0,-1346.0428943950112,575.5223207422625,-524.9023835175726,1]},{"name":"Group 3","matrix":[1.1461322449725069,0.35550088190366175,0,0,-0.35550088190366175,1.1461322449725069,0,0,0,0,1.2,0,150.43834432941244,701.0851007446782,-841.7295573648018,1]},{"name":"Group 5","matrix":[1,0,0,0,0,1,0,0,0,0,1,0,218.2881283143301,645.8886855494131,-841.7295573648017,1],"children":[13,14]},{"name":"Group 4","matrix":[1.3,0,0,0,0,1.3,0,0,0,0,1.53660395408534,0,-977.4429135294322,708.0759153622549,-793.2253722664368,1],"children":[15,16]},{"name":"Directional Light","translation":[-672.2951186396582,2410.997331136027,951.847320309945],"rotation":[-0.5624524966431315,-0.0769507773989985,0.11159049875878346,0.8156428921190719],"extensions":{"KHR_lights_punctual":{"light":0}}},{"name":"Personal Camera","camera":0,"translation":[-142.59565110789558,1114.0261256848867,548.276741335128],"rotation":[-0.21780507692175963,0.0033625996477400586,0.0007504115005970645,0.9759862080343631]},{"name":"Sphere","matrix":[-0.9782272008694859,0.138991951618721,-0.15411937212519672,0,-0.19937719726676462,-0.835565688192959,0.5119362400970507,0,-0.05762184211821692,0.5315178436326167,0.8450849100599542,0,-6.459420415611454e-14,325.9882388626483,-1.8095982427115873e-14,1.0000000000000002],"mesh":2},{"name":"Cone","matrix":[2.220446049250313e-16,-1.2246467991473532e-16,-1,0,0,-1,1.2246467991473532e-16,0,-1,-2.465190328815662e-32,-2.220446049250313e-16,0,-1.7053025658242404e-13,-375.3980732270959,0.6034710219444719,1],"mesh":3},{"name":"Cube 5","matrix":[-1.8419035295250377,1.1798923587427763,7.695144274781572,0,0.9317899627359886,-0.6815352522396081,0.3275319301979308,0,0.7038705645022812,0.971692551913811,0.01948879120130879,0,-238.4919286790188,-296.25614576348283,-0.5137855842693849,1.0000000000000002],"mesh":4},{"name":"Cube","matrix":[0.8219739757685248,-0.5579319955532693,0.673105245483149,0,0.5569266692188298,-0.3780256031142284,-0.993443168230091,0,0.6739372880854737,0.9928789109091065,-4.4944947000976445e-18,0,59.72337802116904,162.7213925850491,-1.3822329393278389e-14,1.0000000000000002],"mesh":5},{"name":"Cube 4","matrix":[-1.5556327520532938,1.8620004582087073,3.411956190024127,0,0.794528988694414,0.6064182364922156,0.031314670266453036,0,-0.4802739556054486,0.6591372902573172,-0.5786838170878249,0,216.08334348211827,-267.7294214211831,200.03569870283832,1],"mesh":6},{"name":"Cube 2","matrix":[-0.37156508674969435,0.4447414474072415,0.8149505698302769,0,0.8020042410499592,0.5959480376685848,0.040436786925594596,0,-0.46768427774148663,0.6686187114918843,-0.5781180113059727,0,-10.756927612387008,65.49304997700492,-75.16529463056813,1],"mesh":7}],"cameras":[{"type":"orthographic","orthographic":{"xmag":1904,"ymag":993,"zfar":500000,"znear":-500000}}],"meshes":[{"primitives":[{"attributes":{"POSITION":1,"NORMAL":2,"TEXCOORD_0":3},"indices":0}]},{"primitives":[{"attributes":{"POSITION":5,"NORMAL":6,"TEXCOORD_0":7},"indices":4}]},{"primitives":[{"attributes":{"POSITION":9,"NORMAL":10,"TEXCOORD_0":11},"indices":8}]},{"primitives":[{"attributes":{"POSITION":13,"NORMAL":14,"TEXCOORD_0":15},"indices":12}]},{"primitives":[{"attributes":{"POSITION":17,"NORMAL":18},"indices":16}]},{"primitives":[{"attributes":{"POSITION":20,"NORMAL":21,"TEXCOORD_0":22},"indices":19}]},{"primitives":[{"attributes":{"POSITION":24,"NORMAL":25,"TEXCOORD_0":26},"indices":23}]},{"primitives":[{"attributes":{"POSITION":28,"NORMAL":29,"TEXCOORD_0":30},"indices":27}]}],"buffers":[{"uri":"data:application/octet-stream;base64,","byteLength":840},{"uri":"data:application/octet-stream;base64,","byteLength":840},{"uri":"data:application/octet-stream;base64,","byteLength":183584},{"uri":"data:application/octet-stream;base64,","byteLength":14848},{"uri":"data:application/octet-stream;base64,","byteLength":737280},{"uri":"data:application/octet-stream;base64,","byteLength":23496},{"uri":"data:application/octet-stream;base64,","byteLength":840},{"uri":"data:application/octet-stream;base64,","byteLength":23496}],"bufferViews":[{"buffer":0,"byteOffset":0,"byteLength":72,"target":34963},{"buffer":0,"byteOffset":72,"byteLength":288,"target":34962},{"buffer":0,"byteOffset":360,"byteLength":288,"target":34962},{"buffer":0,"byteOffset":648,"byteLength":192,"target":34962},{"buffer":1,"byteOffset":0,"byteLength":72,"target":34963},{"buffer":1,"byteOffset":72,"byteLength":288,"target":34962},{"buffer":1,"byteOffset":360,"byteLength":288,"target":34962},{"buffer":1,"byteOffset":648,"byteLength":192,"target":34962},{"buffer":2,"byteOffset":0,"byteLength":48384,"target":34963},{"buffer":2,"byteOffset":48384,"byteLength":50700,"target":34962},{"buffer":2,"byteOffset":99084,"byteLength":50700,"target":34962},{"buffer":2,"byteOffset":149784,"byteLength":33800,"target":34962},{"buffer":3,"byteOffset":0,"byteLength":3264,"target":34963},{"buffer":3,"byteOffset":3264,"byteLength":4344,"target":34962},{"buffer":3,"byteOffset":7608,"byteLength":4344,"target":34962},{"buffer":3,"byteOffset":11952,"byteLength":2896,"target":34962},{"buffer":4,"byteOffset":0,"byteLength":147456,"target":34963},{"buffer":4,"byteOffset":147456,"byteLength":294912,"target":34962},{"buffer":4,"byteOffset":442368,"byteLength":294912,"target":34962},{"buffer":5,"byteOffset":0,"byteLength":4296,"target":34963},{"buffer":5,"byteOffset":4296,"byteLength":7200,"target":34962},{"buffer":5,"byteOffset":11496,"byteLength":7200,"target":34962},{"buffer":5,"byteOffset":18696,"byteLength":4800,"target":34962},{"buffer":6,"byteOffset":0,"byteLength":72,"target":34963},{"buffer":6,"byteOffset":72,"byteLength":288,"target":34962},{"buffer":6,"byteOffset":360,"byteLength":288,"target":34962},{"buffer":6,"byteOffset":648,"byteLength":192,"target":34962},{"buffer":7,"byteOffset":0,"byteLength":4296,"target":34963},{"buffer":7,"byteOffset":4296,"byteLength":7200,"target":34962},{"buffer":7,"byteOffset":11496,"byteLength":7200,"target":34962},{"buffer":7,"byteOffset":18696,"byteLength":4800,"target":34962}],"accessors":[{"bufferView":0,"byteOffset":0,"componentType":5123,"count":36,"type":"SCALAR","min":[0],"max":[23]},{"bufferView":1,"byteOffset":0,"componentType":5126,"count":24,"type":"VEC3","min":[-1006.5,-1316.5,-16.5],"max":[1006.5,1316.5,16.5]},{"bufferView":2,"byteOffset":0,"componentType":5126,"count":24,"type":"VEC3","min":[-1,-1,-1],"max":[1,1,1]},{"bufferView":3,"byteOffset":0,"componentType":5126,"count":24,"type":"VEC2","min":[0,0],"max":[1,1]},{"bufferView":4,"byteOffset":0,"componentType":5123,"count":36,"type":"SCALAR","min":[0],"max":[23]},{"bufferView":5,"byteOffset":0,"componentType":5126,"count":24,"type":"VEC3","min":[-1006.5,-1316.5,-16.5],"max":[1006.5,1316.5,16.5]},{"bufferView":6,"byteOffset":0,"componentType":5126,"count":24,"type":"VEC3","min":[-1,-1,-1],"max":[1,1,1]},{"bufferView":7,"byteOffset":0,"componentType":5126,"count":24,"type":"VEC2","min":[0,0],"max":[1,1]},{"bufferView":8,"byteOffset":0,"componentType":5123,"count":24192,"type":"SCALAR","min":[0],"max":[4224]},{"bufferView":9,"byteOffset":0,"componentType":5126,"count":4225,"type":"VEC3","min":[-355.5,-355.5,-355.5],"max":[355.5,355.5,355.5]},{"bufferView":10,"byteOffset":0,"componentType":5126,"count":4225,"type":"VEC3","min":[-1,-1,-1],"max":[1,1,1]},{"bufferView":11,"byteOffset":0,"componentType":5126,"count":4225,"type":"VEC2","min":[-0.0078125,0],"max":[1.0078125,1]},{"bufferView":12,"byteOffset":0,"componentType":5123,"count":1632,"type":"SCALAR","min":[0],"max":[361]},{"bufferView":13,"byteOffset":0,"componentType":5126,"count":362,"type":"VEC3","min":[-283,-486,-283],"max":[283,486,283]},{"bufferView":14,"byteOffset":0,"componentType":5126,"count":362,"type":"VEC3","min":[-0.9601326584815979,-1,-0.9601326584815979],"max":[0.9601326584815979,0.27954480051994324,0.9601326584815979]},{"bufferView":15,"byteOffset":0,"componentType":5126,"count":362,"type":"VEC2","min":[0,0],"max":[1,1]},{"bufferView":16,"byteOffset":0,"componentType":5125,"count":36864,"type":"SCALAR","min":[0],"max":[24575]},{"bufferView":17,"byteOffset":0,"componentType":5126,"count":24576,"type":"VEC3","min":[-4.200545310974121,-18.482402801513672,-318.6282043457031],"max":[4.200545310974121,18.482402801513672,318.6282043457031]},{"bufferView":18,"byteOffset":0,"componentType":5126,"count":24576,"type":"VEC3","min":[-1,-1,-1],"max":[1,1,1]},{"bufferView":19,"byteOffset":0,"componentType":5123,"count":2148,"type":"SCALAR","min":[0],"max":[599]},{"bufferView":20,"byteOffset":0,"componentType":5126,"count":600,"type":"VEC3","min":[-162,-162,-374],"max":[162,162,374]},{"bufferView":21,"byteOffset":0,"componentType":5126,"count":600,"type":"VEC3","min":[-1,-1,-1],"max":[1,1,1]},{"bufferView":22,"byteOffset":0,"componentType":5126,"count":600,"type":"VEC2","min":[0,0],"max":[1,1]},{"bufferView":23,"byteOffset":0,"componentType":5123,"count":36,"type":"SCALAR","min":[0],"max":[23]},{"bufferView":24,"byteOffset":0,"componentType":5126,"count":24,"type":"VEC3","min":[-4,-42.5,-270.5],"max":[4,42.5,270.5]},{"bufferView":25,"byteOffset":0,"componentType":5126,"count":24,"type":"VEC3","min":[-1,-1,-1],"max":[1,1,1]},{"bufferView":26,"byteOffset":0,"componentType":5126,"count":24,"type":"VEC2","min":[0,0],"max":[1,1]},{"bufferView":27,"byteOffset":0,"componentType":5123,"count":2148,"type":"SCALAR","min":[0],"max":[599]},{"bufferView":28,"byteOffset":0,"componentType":5126,"count":600,"type":"VEC3","min":[-88,-209,-374],"max":[88,209,374]},{"bufferView":29,"byteOffset":0,"componentType":5126,"count":600,"type":"VEC3","min":[-1,-1,-1],"max":[1,1,1]},{"bufferView":30,"byteOffset":0,"componentType":5126,"count":600,"type":"VEC2","min":[0,0],"max":[1,1]}],"extensions":{"KHR_lights_punctual":{"lights":[{"type":"directional","name":"Directional Light","color":[1,1,1],"intensity":0.5}]}},"extensionsUsed":["KHR_lights_punctual"]}