{"asset":{"generator":"Khronos glTF Spline I/O v0.0.1","version":"2.0"},"scenes":[{"nodes":[0]}],"nodes":[{"name":"","children":[1,2,3]},{"name":"Group","matrix":[1,0,0,0,0,0.9542257547375592,-0.29908729326993305,0,0,0.29908729326993305,0.9542257547375592,0,0,665.3980732270959,0,1],"children":[4,5]},{"name":"Directional Light","translation":[200,300,300],"rotation":[-0.4062840720729887,0.12301291902225084,-0.2623788760260691,0.8665785595944042],"extensions":{"KHR_lights_punctual":{"light":0}}},{"name":"Personal Camera","camera":0,"translation":[18.176585446426806,395.3407334597837,1000],"rotation":[-2.842170943040401e-17,0,0,1]},{"name":"Sphere","matrix":[-0.9782272008694859,0.138991951618721,-0.15411937212519672,0,-0.19937719726676462,-0.835565688192959,0.5119362400970507,0,-0.05762184211821692,0.5315178436326167,0.8450849100599542,0,-6.459420415611454e-14,325.9882388626483,-1.8095982427115873e-14,1.0000000000000002],"mesh":0},{"name":"Cone","matrix":[2.220446049250313e-16,-1.2246467991473532e-16,-1,0,0,-1,1.2246467991473532e-16,0,-1,-2.465190328815662e-32,-2.220446049250313e-16,0,-1.7053025658242404e-13,-375.3980732270959,0.6034710219444719,1],"mesh":1}],"cameras":[{"type":"orthographic","orthographic":{"xmag":1904,"ymag":993,"zfar":500000,"znear":-500000}}],"meshes":[{"primitives":[{"attributes":{"POSITION":1,"NORMAL":2,"TEXCOORD_0":3},"indices":0}]},{"primitives":[{"attributes":{"POSITION":5,"NORMAL":6,"TEXCOORD_0":7},"indices":4}]}],"buffers":[{"uri":"data:application/octet-stream;base64,","byteLength":183584},{"uri":"data:application/octet-stream;base64,","byteLength":14848}],"bufferViews":[{"buffer":0,"byteOffset":0,"byteLength":48384,"target":34963},{"buffer":0,"byteOffset":48384,"byteLength":50700,"target":34962},{"buffer":0,"byteOffset":99084,"byteLength":50700,"target":34962},{"buffer":0,"byteOffset":149784,"byteLength":33800,"target":34962},{"buffer":1,"byteOffset":0,"byteLength":3264,"target":34963},{"buffer":1,"byteOffset":3264,"byteLength":4344,"target":34962},{"buffer":1,"byteOffset":7608,"byteLength":4344,"target":34962},{"buffer":1,"byteOffset":11952,"byteLength":2896,"target":34962}],"accessors":[{"bufferView":0,"byteOffset":0,"componentType":5123,"count":24192,"type":"SCALAR","min":[0],"max":[4224]},{"bufferView":1,"byteOffset":0,"componentType":5126,"count":4225,"type":"VEC3","min":[-355.5,-355.5,-355.5],"max":[355.5,355.5,355.5]},{"bufferView":2,"byteOffset":0,"componentType":5126,"count":4225,"type":"VEC3","min":[-1,-1,-1],"max":[1,1,1]},{"bufferView":3,"byteOffset":0,"componentType":5126,"count":4225,"type":"VEC2","min":[-0.0078125,0],"max":[1.0078125,1]},{"bufferView":4,"byteOffset":0,"componentType":5123,"count":1632,"type":"SCALAR","min":[0],"max":[361]},{"bufferView":5,"byteOffset":0,"componentType":5126,"count":362,"type":"VEC3","min":[-283,-486,-283],"max":[283,486,283]},{"bufferView":6,"byteOffset":0,"componentType":5126,"count":362,"type":"VEC3","min":[-0.9601326584815979,-1,-0.9601326584815979],"max":[0.9601326584815979,0.27954480051994324,0.9601326584815979]},{"bufferView":7,"byteOffset":0,"componentType":5126,"count":362,"type":"VEC2","min":[0,0],"max":[1,1]}],"extensions":{"KHR_lights_punctual":{"lights":[{"type":"directional","name":"Directional Light","color":[1,1,1],"intensity":0.7}]}},"extensionsUsed":["KHR_lights_punctual"]}